<svg xmlns="http://www.w3.org/2000/svg" version="1.1" xmlns:xlink="http://www.w3.org/1999/xlink" xmlns:svgjs="http://svgjs.dev/svgjs" viewBox="0 0 800 800"><defs><linearGradient x1="50%" y1="0%" x2="50%" y2="100%" id="ffflurry-grad" gradientTransform="rotate(270)"><stop stop-color="hsl(0, 0%, 100%)" stop-opacity="1" offset="0%"></stop><stop stop-color="hsl(0, 0%, 10%)" stop-opacity="1" offset="45%"></stop><stop stop-color="hsl(167, 15%, 14%)" stop-opacity="1" offset="100%"></stop></linearGradient></defs><rect width="100%" height="100%" fill="hsl(0, 0%, 100%)"></rect><g fill="url(#ffflurry-grad)"><rect width="358" height="1" x="429" y="332.5" rx="0.5" transform="rotate(47, 608, 333)"></rect><rect width="242" height="1" x="443" y="761.5" rx="0.5" transform="rotate(47, 564, 762)"></rect><rect width="326" height="1" x="67" y="164.5" rx="0.5" transform="rotate(47, 230, 165)"></rect><rect width="66" height="1" x="543" y="515.5" rx="0.5" transform="rotate(47, 576, 516)"></rect><rect width="146" height="1" x="-37" y="615.5" rx="0.5" transform="rotate(47, 36, 616)"></rect><rect width="210" height="1" x="454" y="664.5" rx="0.5" transform="rotate(47, 559, 665)"></rect><rect width="271" height="1" x="593.5" y="674.5" rx="0.5" transform="rotate(47, 729, 675)"></rect><rect width="70" height="1" x="744" y="780.5" rx="0.5" transform="rotate(47, 779, 781)"></rect><rect width="142" height="1" x="314" y="80.5" rx="0.5" transform="rotate(47, 385, 81)"></rect><rect width="244" height="1" x="30" y="751.5" rx="0.5" transform="rotate(47, 152, 752)"></rect><rect width="96" height="1" x="546" y="583.5" rx="0.5" transform="rotate(47, 594, 584)"></rect><rect width="156" height="1" x="657" y="770.5" rx="0.5" transform="rotate(47, 735, 771)"></rect><rect width="433" height="1" x="535.5" y="278.5" rx="0.5" transform="rotate(47, 752, 279)"></rect><rect width="120" height="1" x="416" y="113.5" rx="0.5" transform="rotate(47, 476, 114)"></rect><rect width="165" height="1" x="338.5" y="24.5" rx="0.5" transform="rotate(47, 421, 25)"></rect><rect width="69" height="1" x="606.5" y="702.5" rx="0.5" transform="rotate(47, 641, 703)"></rect><rect width="337" height="1" x="127.5" y="30.5" rx="0.5" transform="rotate(47, 296, 31)"></rect><rect width="195" height="1" x="189.5" y="417.5" rx="0.5" transform="rotate(47, 287, 418)"></rect><rect width="144" height="1" x="367" y="361.5" rx="0.5" transform="rotate(47, 439, 362)"></rect><rect width="232" height="1" x="564" y="350.5" rx="0.5" transform="rotate(47, 680, 351)"></rect><rect width="577" height="1" x="168.5" y="724.5" rx="0.5" transform="rotate(47, 457, 725)"></rect><rect width="175" height="1" x="209.5" y="312.5" rx="0.5" transform="rotate(47, 297, 313)"></rect><rect width="292" height="1" x="215" y="432.5" rx="0.5" transform="rotate(47, 361, 433)"></rect><rect width="255" height="1" x="385.5" y="404.5" rx="0.5" transform="rotate(47, 513, 405)"></rect><rect width="240" height="1" x="130" y="244.5" rx="0.5" transform="rotate(47, 250, 245)"></rect><rect width="141" height="1" x="405.5" y="239.5" rx="0.5" transform="rotate(47, 476, 240)"></rect><rect width="380" height="1" x="-149" y="64.5" rx="0.5" transform="rotate(47, 41, 65)"></rect><rect width="50" height="1" x="126" y="532.5" rx="0.5" transform="rotate(47, 151, 533)"></rect><rect width="178" height="1" x="-14" y="537.5" rx="0.5" transform="rotate(47, 75, 538)"></rect><rect width="174" height="1" x="528" y="126.5" rx="0.5" transform="rotate(47, 615, 127)"></rect><rect width="96" height="1" x="340" y="144.5" rx="0.5" transform="rotate(47, 388, 145)"></rect><rect width="173" height="1" x="593.5" y="762.5" rx="0.5" transform="rotate(47, 680, 763)"></rect><rect width="90" height="1" x="657" y="478.5" rx="0.5" transform="rotate(47, 702, 479)"></rect><rect width="509" height="1" x="113.5" y="582.5" rx="0.5" transform="rotate(47, 368, 583)"></rect><rect width="146" height="1" x="137" y="462.5" rx="0.5" transform="rotate(47, 210, 463)"></rect><rect width="238" height="1" x="93" y="30.5" rx="0.5" transform="rotate(47, 212, 31)"></rect><rect width="147" height="1" x="240.5" y="95.5" rx="0.5" transform="rotate(47, 314, 96)"></rect><rect width="523" height="1" x="-17.5" y="709.5" rx="0.5" transform="rotate(47, 244, 710)"></rect><rect width="120" height="1" x="475" y="143.5" rx="0.5" transform="rotate(47, 535, 144)"></rect><rect width="386" height="1" x="-62" y="140.5" rx="0.5" transform="rotate(47, 131, 141)"></rect><rect width="230" height="1" x="204" y="183.5" rx="0.5" transform="rotate(47, 319, 184)"></rect><rect width="423" height="1" x="402.5" y="432.5" rx="0.5" transform="rotate(47, 614, 433)"></rect><rect width="258" height="1" x="-81" y="735.5" rx="0.5" transform="rotate(47, 48, 736)"></rect><rect width="248" height="1" x="-78" y="193.5" rx="0.5" transform="rotate(47, 46, 194)"></rect><rect width="62" height="1" x="530" y="44.5" rx="0.5" transform="rotate(47, 561, 45)"></rect><rect width="207" height="1" x="47.5" y="251.5" rx="0.5" transform="rotate(47, 151, 252)"></rect><rect width="141" height="1" x="623.5" y="42.5" rx="0.5" transform="rotate(47, 694, 43)"></rect><rect width="178" height="1" x="-37" y="399.5" rx="0.5" transform="rotate(47, 52, 400)"></rect><rect width="154" height="1" x="604" y="535.5" rx="0.5" transform="rotate(47, 681, 536)"></rect><rect width="120" height="1" x="4" y="471.5" rx="0.5" transform="rotate(47, 64, 472)"></rect><rect width="183" height="1" x="674.5" y="600.5" rx="0.5" transform="rotate(47, 766, 601)"></rect><rect width="71" height="1" x="394.5" y="485.5" rx="0.5" transform="rotate(47, 430, 486)"></rect><rect width="279" height="1" x="-13.5" y="43.5" rx="0.5" transform="rotate(47, 126, 44)"></rect><rect width="296" height="1" x="558" y="412.5" rx="0.5" transform="rotate(47, 706, 413)"></rect><rect width="153" height="1" x="272.5" y="730.5" rx="0.5" transform="rotate(47, 349, 731)"></rect><rect width="168" height="1" x="302" y="296.5" rx="0.5" transform="rotate(47, 386, 297)"></rect><rect width="220" height="1" x="-52" y="307.5" rx="0.5" transform="rotate(47, 58, 308)"></rect><rect width="146" height="1" x="152" y="94.5" rx="0.5" transform="rotate(47, 225, 95)"></rect><rect width="292" height="1" x="624" y="506.5" rx="0.5" transform="rotate(47, 770, 507)"></rect><rect width="102" height="1" x="469" y="479.5" rx="0.5" transform="rotate(47, 520, 480)"></rect><rect width="113" height="1" x="227.5" y="576.5" rx="0.5" transform="rotate(47, 284, 577)"></rect><rect width="183" height="1" x="473.5" y="222.5" rx="0.5" transform="rotate(47, 565, 223)"></rect><rect width="58" height="1" x="335" y="25.5" rx="0.5" transform="rotate(47, 364, 26)"></rect><rect width="168" height="1" x="126" y="576.5" rx="0.5" transform="rotate(47, 210, 577)"></rect><rect width="107" height="1" x="432.5" y="27.5" rx="0.5" transform="rotate(47, 486, 28)"></rect><rect width="130" height="1" x="65" y="639.5" rx="0.5" transform="rotate(47, 130, 640)"></rect><rect width="210" height="1" x="70" y="363.5" rx="0.5" transform="rotate(47, 175, 364)"></rect><rect width="613" height="1" x="167.5" y="594.5" rx="0.5" transform="rotate(47, 474, 595)"></rect><rect width="220" height="1" x="660" y="401.5" rx="0.5" transform="rotate(47, 770, 402)"></rect><rect width="524" height="1" x="398" y="226.5" rx="0.5" transform="rotate(47, 660, 227)"></rect><rect width="352" height="1" x="225" y="216.5" rx="0.5" transform="rotate(47, 401, 217)"></rect><rect width="161" height="1" x="366.5" y="75.5" rx="0.5" transform="rotate(47, 447, 76)"></rect><rect width="208" height="1" x="369" y="170.5" rx="0.5" transform="rotate(47, 473, 171)"></rect><rect width="36" height="1" x="755" y="721.5" rx="0.5" transform="rotate(47, 773, 722)"></rect><rect width="472" height="1" x="514" y="129.5" rx="0.5" transform="rotate(47, 750, 130)"></rect><rect width="358" height="1" x="498" y="610.5" rx="0.5" transform="rotate(47, 677, 611)"></rect><rect width="56" height="1" x="497" y="308.5" rx="0.5" transform="rotate(47, 525, 309)"></rect></g></svg>